<?xml version="1.0" standalone="no"?>
<!DOCTYPE svg PUBLIC "-//W3C//DTD SVG 20010904//EN"
 "http://www.w3.org/TR/2001/REC-SVG-20010904/DTD/svg10.dtd">
<svg version="1.0" xmlns="http://www.w3.org/2000/svg"
 width="500.000000pt" height="500.000000pt" viewBox="0 0 500.000000 500.000000"
 preserveAspectRatio="xMidYMid meet">
<metadata>
Created by potrace 1.14, written by Peter Selinger 2001-2017
</metadata>
<g transform="translate(0.000000,500.000000) scale(0.100000,-0.100000)"
fill="#000000" stroke="none">
<path d="M1054 4832 c6 -9 0 -11 -20 -8 -15 3 -35 0 -43 -7 -12 -9 -13 -9 -7
0 5 9 -3 12 -31 9 -21 -3 -38 -5 -38 -6 0 -1 -10 -3 -22 -4 -13 -2 -23 1 -23
5 0 5 -11 4 -25 -1 -14 -5 -32 -7 -42 -3 -12 5 -14 3 -8 -8 7 -11 5 -11 -10 1
-10 8 -16 10 -12 3 4 -6 3 -14 -3 -18 -5 -3 -10 -1 -10 6 0 8 -4 8 -15 -1 -12
-10 -15 -10 -15 1 0 9 -3 10 -8 4 -4 -5 -18 -12 -32 -13 -14 -2 -30 -8 -36
-13 -6 -5 -20 -6 -29 -2 -12 4 -16 3 -11 -5 3 -6 2 -13 -4 -17 -5 -3 -10 -2
-10 3 0 6 -9 8 -20 5 -11 -3 -17 -10 -14 -15 3 -5 0 -9 -7 -7 -28 3 -50 -1
-45 -10 3 -5 -8 -11 -25 -15 -17 -3 -28 -10 -24 -16 3 -6 0 -7 -9 -4 -10 4
-16 1 -16 -7 0 -7 -3 -9 -7 -6 -3 4 -12 -1 -20 -11 -9 -10 -11 -11 -7 -2 7 13
5 13 -9 1 -9 -7 -14 -18 -10 -24 3 -6 1 -7 -6 -3 -6 4 -28 -9 -51 -33 -22 -22
-40 -37 -40 -33 -1 4 -9 -4 -20 -17 -11 -12 -17 -28 -13 -34 3 -6 1 -7 -5 -3
-6 3 -16 -3 -22 -14 -6 -11 -16 -17 -22 -14 -7 4 -8 3 -4 -4 4 -7 -2 -22 -13
-34 -12 -12 -21 -27 -21 -34 0 -6 -10 -19 -23 -28 -12 -9 -16 -14 -10 -11 8 4
11 1 7 -9 -3 -9 -10 -14 -14 -11 -10 6 -22 -24 -14 -36 3 -5 0 -9 -6 -9 -7 0
-9 -7 -6 -16 3 -8 2 -12 -4 -9 -5 3 -12 -6 -16 -20 -3 -14 -10 -25 -16 -25 -5
0 -6 -5 -3 -10 4 -6 2 -17 -4 -24 -7 -8 -11 -18 -10 -22 1 -5 0 -12 -1 -16 -4
-13 -7 -27 -9 -39 0 -5 -5 -8 -10 -5 -11 7 -9 -13 3 -33 7 -10 6 -12 -4 -6
-10 6 -12 4 -7 -7 3 -9 0 -21 -6 -28 -9 -10 -9 -11 3 -5 10 5 8 1 -4 -13 -11
-12 -16 -25 -13 -29 4 -3 7 -1 7 5 0 7 4 12 9 12 6 0 4 -15 -4 -34 -12 -29
-14 -245 -14 -1405 0 -949 3 -1370 10 -1365 6 3 8 13 4 23 -5 12 -3 13 5 5 9
-9 9 -17 0 -34 -9 -18 -9 -24 0 -30 9 -6 9 -9 -1 -13 -9 -3 -10 -6 -2 -6 7 -1
10 -11 7 -27 -3 -14 -1 -23 4 -20 5 3 8 -6 6 -19 -1 -14 2 -28 8 -31 6 -4 5
-10 -3 -15 -11 -7 -11 -9 2 -9 9 0 19 -9 22 -20 3 -12 1 -18 -5 -14 -6 4 -6
-1 1 -13 6 -11 7 -23 4 -27 -3 -3 -1 -6 6 -6 7 0 9 -5 6 -10 -3 -6 -1 -10 4
-10 6 0 11 -9 11 -20 0 -11 6 -20 13 -20 8 0 7 -4 -3 -10 -13 -8 -12 -10 3
-10 10 0 15 -4 12 -10 -3 -5 -1 -10 5 -10 7 0 10 -7 6 -15 -3 -8 0 -14 6 -12
7 1 13 -4 14 -10 1 -7 2 -18 3 -24 0 -5 5 -8 10 -4 5 3 15 -11 21 -30 6 -19
15 -33 20 -30 5 3 11 -4 15 -15 3 -11 11 -20 16 -20 6 0 7 -5 4 -10 -3 -5 1
-10 9 -10 8 0 18 -9 21 -20 3 -11 13 -20 22 -20 10 0 13 -6 9 -16 -3 -8 -2
-12 4 -9 6 3 10 1 10 -4 0 -6 6 -11 14 -11 13 0 31 -27 28 -42 -1 -4 5 -5 13
-2 8 4 15 1 15 -5 0 -6 7 -11 16 -11 9 0 12 -5 8 -12 -5 -7 -2 -9 8 -6 8 4 20
-2 27 -13 6 -11 15 -18 20 -15 4 3 13 -4 21 -14 8 -10 17 -17 22 -14 4 3 8 0
8 -5 0 -6 5 -11 11 -11 5 0 7 6 3 12 -5 9 -3 9 9 -1 9 -7 14 -17 11 -22 -3 -5
-2 -8 3 -7 4 1 19 -4 33 -12 22 -11 24 -11 15 1 -7 11 -6 11 5 -1 8 -8 24 -17
35 -18 11 -2 23 -9 27 -15 5 -8 8 -7 8 3 0 9 3 11 8 5 9 -14 65 -38 57 -25 -3
6 1 7 9 4 9 -3 14 -9 12 -13 -3 -4 8 -6 22 -5 15 1 32 -1 37 -5 18 -10 35 -9
35 2 0 7 4 6 9 -2 6 -9 28 -15 59 -15 28 0 48 -4 45 -9 -3 -5 5 -3 18 3 17 10
24 10 27 2 3 -9 9 -9 23 -2 14 8 19 7 19 -1 0 -8 4 -8 15 1 11 9 15 9 15 1 0
-7 5 -9 12 -5 18 11 48 12 48 2 0 -5 6 -6 13 -1 20 12 37 12 37 0 0 -7 5 -5
10 3 9 13 10 13 10 0 0 -13 1 -13 10 0 9 13 10 13 10 0 0 -13 1 -13 10 0 9 13
10 13 10 0 0 -13 1 -13 10 0 9 13 10 13 10 0 0 -12 2 -12 9 -1 6 9 11 10 15 2
5 -8 13 -8 27 -1 13 8 19 7 19 0 0 -8 6 -8 20 0 13 7 20 7 20 1 0 -7 9 -7 24
-1 17 6 26 5 30 -3 3 -9 7 -8 15 3 10 13 12 13 21 0 9 -13 10 -13 10 0 0 13 1
13 10 0 9 -13 11 -13 20 0 9 13 11 13 20 0 9 -13 10 -13 10 0 0 9 3 11 8 5 9
-13 75 -13 85 0 4 6 11 4 17 -5 9 -13 10 -13 10 0 0 13 1 13 10 0 9 -13 11
-13 20 0 6 9 13 11 18 5 4 -5 14 -10 22 -10 8 0 18 5 23 10 4 6 11 4 17 -5 9
-13 10 -13 10 0 0 13 1 13 10 0 9 -13 10 -13 10 0 0 13 1 13 10 0 9 -13 10
-13 10 0 0 13 1 13 10 0 9 -13 10 -13 10 0 0 13 1 13 10 0 9 -13 10 -13 10 0
0 13 1 13 10 0 9 -13 10 -13 10 0 0 13 1 13 10 0 9 -13 10 -13 10 0 0 12 2 13
9 1 7 -11 9 -11 14 0 4 10 6 10 6 2 1 -7 6 -13 12 -13 5 0 7 4 4 10 -4 7 2 7
18 1 14 -6 28 -7 31 -4 11 11 76 9 76 -1 0 -6 5 -4 10 4 9 13 10 13 10 0 0
-12 2 -12 9 -2 4 8 12 14 16 14 4 0 12 -6 16 -14 7 -11 11 -10 20 2 8 11 12
12 16 3 3 -9 10 -10 24 -3 14 8 19 7 19 -1 0 -8 4 -8 15 1 11 9 15 9 15 1 0
-7 5 -9 12 -5 19 12 48 12 48 1 0 -5 8 -3 17 4 14 12 15 12 9 1 -7 -11 -4 -12
13 -3 15 8 21 9 21 1 0 -6 5 -8 13 -3 18 11 77 10 77 -2 0 -5 5 -3 10 5 8 12
10 12 10 1 0 -11 3 -11 15 -1 11 9 15 9 15 1 0 -7 5 -9 12 -4 18 10 38 13 38
4 0 -9 37 -8 45 1 3 3 21 2 40 -2 19 -4 37 -5 40 -2 9 9 55 8 55 -1 0 -5 6 -4
13 2 8 6 17 8 20 5 10 -10 50 -11 70 -2 11 6 17 5 17 -3 0 -7 4 -8 13 -2 13
10 54 10 64 0 3 -4 14 -2 24 4 14 7 19 6 19 -2 0 -8 5 -8 16 2 13 10 17 10 25
-2 8 -12 10 -12 19 1 9 13 11 13 20 0 9 -13 10 -13 10 0 0 9 3 11 8 5 6 -9 27
-11 42 -5 18 7 80 4 80 -3 0 -5 7 -4 15 3 11 9 15 9 15 1 0 -9 5 -9 20 -1 15
8 20 8 20 -1 0 -8 5 -7 17 2 19 16 23 16 34 -3 7 -10 9 -10 9 2 0 13 1 13 10
0 9 -13 10 -13 10 0 0 13 1 13 10 0 9 -13 11 -13 20 0 6 9 13 11 18 5 4 -5 14
-10 22 -10 8 0 18 5 23 10 4 6 11 4 17 -5 9 -13 10 -13 10 0 0 13 1 13 10 0 6
-9 13 -11 18 -5 4 6 14 10 22 10 8 0 19 -4 23 -10 6 -6 10 -6 14 3 2 6 9 12
14 12 6 0 8 -4 5 -9 -8 -12 27 -8 36 4 5 6 8 5 8 -4 0 -11 3 -11 15 -1 12 10
15 10 15 0 0 -10 3 -10 15 0 12 10 15 10 15 0 0 -10 3 -10 15 0 10 8 15 9 15
1 0 -7 8 -8 25 -1 18 7 25 6 25 -3 0 -8 4 -7 10 3 5 8 10 10 10 3 0 -11 60
-10 80 2 5 3 10 1 10 -6 0 -9 3 -9 14 0 10 9 15 9 18 1 2 -8 11 -8 32 0 24 9
27 8 22 -5 -4 -12 -1 -12 21 2 15 10 24 13 20 6 -8 -12 17 -12 29 0 4 4 13 -1
21 -11 8 -9 12 -11 8 -5 -3 7 -3 13 2 14 4 0 18 2 31 3 12 2 22 -1 22 -5 0 -5
7 -6 15 -3 8 4 12 11 8 18 -5 8 -3 8 8 0 18 -13 59 -10 69 6 6 10 8 10 12 0 3
-10 9 -10 27 0 19 10 22 10 15 -2 -6 -10 -5 -11 8 -1 8 7 18 10 21 6 4 -3 7
-1 7 6 0 7 5 9 10 6 6 -3 10 -1 10 5 0 6 5 8 10 5 6 -3 10 0 10 7 0 9 3 9 10
-2 8 -12 10 -12 10 -1 0 8 7 11 20 8 11 -3 18 -1 14 4 -3 5 2 9 11 9 9 0 13 4
10 10 -4 6 1 7 11 3 12 -4 15 -3 10 5 -5 8 -2 10 8 6 9 -4 16 -1 16 6 0 7 7
10 15 6 8 -3 15 -1 15 4 0 5 10 12 22 15 13 4 31 17 41 29 10 11 15 15 11 7
-5 -9 -3 -12 4 -7 7 4 12 15 12 24 0 15 2 15 10 2 9 -14 14 -7 11 13 -1 5 3 6
8 3 5 -4 18 5 29 19 11 13 22 21 26 18 4 -4 9 3 13 15 3 12 9 20 13 17 5 -3
11 4 15 15 4 11 10 18 15 15 5 -3 18 11 30 30 12 19 26 33 31 30 5 -4 6 1 3 9
-4 9 1 18 10 22 9 3 16 13 16 21 0 8 5 11 10 8 9 -5 15 16 11 38 -1 5 3 6 8 2
6 -3 15 4 21 15 6 11 16 17 22 14 7 -5 8 -2 4 5 -5 7 0 21 9 31 10 11 18 31
18 45 0 16 4 24 12 22 8 -3 11 5 10 24 -1 15 2 26 6 24 8 -5 23 25 20 39 -1 4
6 15 16 23 10 8 11 11 3 7 -12 -6 -13 -5 -3 7 11 14 13 19 13 40 0 5 6 7 13 4
6 -4 3 1 -7 9 -18 14 -15 21 6 17 4 0 8 657 8 1460 0 1161 -2 1465 -12 1477
-11 13 -11 14 2 7 12 -7 13 -6 4 6 -17 22 -26 51 -13 43 8 -4 8 -1 1 12 -5 11
-7 25 -4 33 2 8 0 11 -6 7 -5 -3 -13 1 -16 10 -4 10 -2 13 7 8 8 -5 7 -2 -2 9
-7 9 -10 17 -6 17 4 0 2 7 -5 15 -7 9 -10 18 -6 22 3 4 -4 18 -16 31 -13 14
-16 22 -8 18 8 -4 6 0 -4 8 -11 9 -16 16 -12 16 4 0 0 7 -8 16 -9 8 -14 19
-11 24 3 5 -4 12 -15 15 -17 5 -19 10 -9 21 11 14 2 19 -24 15 -5 -1 -6 3 -2
9 3 5 0 13 -9 16 -9 3 -12 12 -9 22 5 12 2 14 -11 9 -9 -4 -15 -3 -11 2 3 5 1
12 -5 16 -6 4 -8 10 -5 14 2 5 -5 17 -18 27 -22 19 -22 19 -7 -1 10 -14 7 -13
-8 3 -12 13 -20 28 -17 33 6 8 -16 14 -38 10 -5 -1 -6 2 -3 7 3 5 -1 18 -9 28
-15 19 -15 18 -10 -1 5 -16 3 -16 -6 3 -7 12 -18 22 -24 22 -7 0 -16 7 -19 16
-3 8 -10 12 -16 9 -5 -3 -10 -2 -10 4 0 5 -9 13 -20 16 -12 4 -17 11 -14 18 4
7 3 9 -1 4 -5 -4 -16 0 -25 8 -10 9 -21 15 -26 14 -18 -4 -44 13 -37 25 4 6
-1 5 -10 -3 -11 -9 -17 -10 -17 -2 0 6 -9 11 -20 11 -11 0 -20 5 -20 10 0 6
-13 10 -29 10 -17 0 -32 4 -36 10 -3 5 -13 6 -22 3 -11 -4 -14 -3 -9 5 4 7 2
12 -3 12 -6 0 -11 -5 -11 -11 0 -6 -7 -3 -16 6 -14 13 -19 14 -25 3 -7 -10 -9
-10 -9 0 0 10 -5 10 -21 1 -17 -8 -20 -8 -14 1 5 8 3 11 -6 8 -8 -3 -28 1 -46
9 -23 9 -34 10 -39 2 -4 -8 -9 -7 -15 2 -7 12 -9 12 -9 0 0 -10 -3 -11 -13 -2
-10 8 -17 7 -25 -1 -9 -9 -12 -9 -12 0 0 10 -5 10 -20 2 -15 -8 -20 -8 -20 2
0 9 -3 9 -10 -2 -6 -9 -10 -10 -10 -3 0 12 -37 12 -58 -1 -7 -4 -12 -3 -12 2
0 10 -30 10 -46 -1 -6 -3 -14 -4 -18 0 -10 11 -56 9 -56 -2 0 -5 -5 -3 -10 5
-9 13 -10 13 -10 0 0 -9 -3 -11 -8 -5 -8 12 -32 13 -49 2 -7 -5 -13 -4 -13 2
0 8 -20 8 -40 1 -3 -1 -9 -1 -15 0 -26 6 -52 6 -67 -2 -10 -5 -18 -3 -20 4 -3
8 -9 8 -25 -1 -14 -7 -24 -8 -28 -1 -3 5 -11 10 -16 10 -6 0 -8 -4 -5 -8 3 -5
-1 -9 -9 -9 -8 0 -15 4 -15 8 0 9 -41 6 -57 -4 -6 -4 -14 -3 -18 3 -3 5 -11
10 -16 10 -6 0 -7 -4 -4 -10 4 -6 -2 -7 -18 -1 -16 6 -28 6 -36 -2 -8 -8 -11
-8 -11 0 0 12 -18 12 -39 -1 -7 -5 -16 -5 -20 0 -7 11 -32 11 -48 1 -7 -5 -13
-4 -13 2 0 11 -39 9 -58 -3 -7 -4 -12 -3 -12 2 0 10 -30 9 -48 -2 -6 -4 -12
-3 -12 3 0 7 -8 7 -24 1 -17 -6 -26 -5 -30 3 -5 9 -7 9 -12 0 -4 -8 -13 -9
-30 -2 -30 11 -37 11 -31 2 3 -5 -6 -8 -19 -8 -13 0 -24 5 -24 10 0 6 -5 3
-10 -5 -5 -8 -10 -10 -10 -3 0 12 -17 12 -37 0 -8 -5 -13 -3 -13 3 0 8 -6 7
-21 -1 -16 -8 -20 -8 -14 1 6 9 2 9 -14 1 -11 -7 -21 -8 -21 -3 0 4 -9 8 -20
9 -11 1 -18 -2 -15 -7 3 -5 -7 -5 -24 0 -21 6 -31 5 -35 -3 -3 -8 -5 -8 -5 1
-1 9 -6 10 -20 2 -14 -7 -21 -6 -24 3 -4 9 -7 9 -14 0 -5 -8 -14 -9 -23 -3 -9
5 -19 5 -27 -2 -9 -7 -13 -7 -13 2 0 10 -3 10 -15 0 -8 -7 -15 -8 -15 -3 0 11
-36 11 -46 0 -4 -3 -15 -2 -25 3 -12 7 -19 6 -22 -3 -4 -8 -8 -9 -14 -2 -9 12
-23 13 -40 2 -8 -5 -13 -3 -13 4 0 8 -4 8 -15 -1 -12 -10 -15 -10 -15 1 0 11
-2 11 -10 -1 -5 -8 -10 -10 -10 -4 0 10 -51 11 -68 0 -6 -3 -12 0 -15 6 -3 10
-7 10 -20 -1 -10 -7 -17 -9 -17 -4 0 11 -36 11 -46 0 -4 -4 -13 1 -21 11 -8 9
-12 12 -9 6 7 -13 -21 -28 -28 -15 -6 9 -37 8 -54 -3 -7 -4 -12 -2 -12 5 0 8
-4 8 -15 -1 -11 -9 -15 -9 -15 -1 0 9 -5 9 -20 1 -11 -6 -20 -7 -20 -3 0 5
-12 8 -27 7 -16 -1 -28 -3 -28 -4 0 -1 -10 -3 -22 -4 -13 -2 -23 1 -23 5 0 9
-20 6 -37 -4 -7 -5 -13 -4 -13 1 0 10 -30 9 -48 -2 -7 -4 -12 -2 -12 5 0 8 -4
8 -15 -1 -12 -10 -15 -10 -15 0 0 10 -3 10 -15 0 -8 -7 -15 -8 -15 -3 0 11
-29 11 -48 -1 -7 -4 -12 -2 -12 5 0 8 -4 8 -15 -1 -11 -9 -15 -9 -15 -1 0 8
-5 9 -19 1 -14 -7 -21 -6 -24 3 -3 9 -7 9 -20 -2 -14 -11 -17 -11 -17 0 0 11
-2 11 -10 -1 -5 -8 -10 -10 -10 -4 0 12 -60 11 -80 -1 -7 -4 -15 -4 -19 1 -8
11 -42 11 -60 0 -8 -5 -17 -3 -22 5 -7 12 -9 11 -9 -1 0 -10 -3 -11 -8 -4 -8
12 -40 12 -60 0 -6 -4 -12 -3 -12 2 0 10 -30 9 -48 -2 -7 -4 -12 -2 -12 4 0 6
-10 8 -26 4 -22 -6 -25 -4 -19 7 7 11 6 12 -6 2 -12 -10 -18 -10 -29 0 -10 9
-11 9 -6 -1z"/>
</g>
</svg>
